<svg width="132" height="43" viewBox="0 0 132 43" fill="none" xmlns="http://www.w3.org/2000/svg">
<path d="M1.032 39V30.684H6.108V31.68H2.196V34.152H5.676V35.124H2.196V38.004H6.408V39H1.032ZM27.3275 39C27.1515 38.704 26.9475 38.372 26.7155 38.004C26.4915 37.636 26.2475 37.256 25.9835 36.864C25.7195 36.464 25.4435 36.06 25.1555 35.652C24.8755 35.244 24.5955 34.852 24.3155 34.476C24.0355 34.092 23.7635 33.732 23.4995 33.396C23.2355 33.06 22.9915 32.764 22.7675 32.508V39H21.6275V30.684H22.5515C22.9275 31.084 23.3275 31.552 23.7515 32.088C24.1835 32.616 24.6075 33.164 25.0235 33.732C25.4475 34.292 25.8435 34.844 26.2115 35.388C26.5875 35.932 26.9035 36.416 27.1595 36.84V30.684H28.2995V39H27.3275ZM49.1739 34.908H50.3379V38.796C50.2419 38.828 50.1019 38.864 49.9179 38.904C49.7419 38.944 49.5339 38.984 49.2939 39.024C49.0619 39.064 48.8059 39.096 48.5259 39.12C48.2459 39.152 47.9619 39.168 47.6739 39.168C47.0899 39.168 46.5579 39.072 46.0779 38.88C45.5979 38.688 45.1859 38.408 44.8419 38.04C44.4979 37.672 44.2299 37.22 44.0379 36.684C43.8539 36.148 43.7619 35.532 43.7619 34.836C43.7619 34.14 43.8659 33.524 44.0739 32.988C44.2899 32.444 44.5779 31.988 44.9379 31.62C45.2979 31.252 45.7179 30.972 46.1979 30.78C46.6859 30.588 47.2059 30.492 47.7579 30.492C48.1339 30.492 48.4659 30.516 48.7539 30.564C49.0499 30.612 49.3019 30.668 49.5099 30.732C49.7179 30.796 49.8859 30.86 50.0139 30.924C50.1499 30.988 50.2419 31.036 50.2899 31.068L49.9179 32.04C49.6859 31.888 49.3779 31.764 48.9939 31.668C48.6099 31.564 48.2179 31.512 47.8179 31.512C47.3939 31.512 47.0059 31.588 46.6539 31.74C46.3099 31.892 46.0139 32.112 45.7659 32.4C45.5259 32.688 45.3379 33.04 45.2019 33.456C45.0659 33.864 44.9979 34.324 44.9979 34.836C44.9979 35.332 45.0539 35.784 45.1659 36.192C45.2859 36.6 45.4619 36.952 45.6939 37.248C45.9339 37.536 46.2259 37.76 46.5699 37.92C46.9219 38.08 47.3339 38.16 47.8059 38.16C48.1419 38.16 48.4259 38.144 48.6579 38.112C48.8979 38.072 49.0699 38.036 49.1739 38.004V34.908ZM70.9044 37.992V39H65.9004V30.684H67.0644V37.992H70.9044ZM85.8631 30.684H87.0271V39H85.8631V30.684ZM104.758 38.172C105.974 38.172 106.582 37.756 106.582 36.924C106.582 36.668 106.526 36.452 106.414 36.276C106.31 36.092 106.166 35.936 105.982 35.808C105.798 35.672 105.586 35.556 105.346 35.46C105.114 35.364 104.866 35.268 104.602 35.172C104.298 35.068 104.01 34.952 103.738 34.824C103.466 34.688 103.23 34.532 103.03 34.356C102.83 34.172 102.67 33.956 102.55 33.708C102.438 33.46 102.382 33.16 102.382 32.808C102.382 32.08 102.63 31.512 103.126 31.104C103.622 30.696 104.306 30.492 105.178 30.492C105.682 30.492 106.138 30.548 106.546 30.66C106.962 30.764 107.266 30.88 107.458 31.008L107.086 31.956C106.918 31.852 106.666 31.752 106.33 31.656C106.002 31.552 105.618 31.5 105.178 31.5C104.954 31.5 104.746 31.524 104.554 31.572C104.362 31.62 104.194 31.692 104.05 31.788C103.906 31.884 103.79 32.008 103.702 32.16C103.622 32.304 103.582 32.476 103.582 32.676C103.582 32.9 103.626 33.088 103.714 33.24C103.802 33.392 103.926 33.528 104.086 33.648C104.246 33.76 104.43 33.864 104.638 33.96C104.854 34.056 105.09 34.152 105.346 34.248C105.706 34.392 106.034 34.536 106.33 34.68C106.634 34.824 106.894 34.996 107.11 35.196C107.334 35.396 107.506 35.636 107.626 35.916C107.746 36.188 107.806 36.52 107.806 36.912C107.806 37.64 107.538 38.2 107.002 38.592C106.474 38.984 105.726 39.18 104.758 39.18C104.43 39.18 104.126 39.156 103.846 39.108C103.574 39.068 103.33 39.02 103.114 38.964C102.898 38.9 102.71 38.836 102.55 38.772C102.398 38.7 102.278 38.64 102.19 38.592L102.538 37.632C102.722 37.736 103.002 37.852 103.378 37.98C103.754 38.108 104.214 38.172 104.758 38.172ZM128.184 30.684H129.348V39H128.184V35.16H124.116V39H122.952V30.684H124.116V34.152H128.184V30.684Z" fill="white"/>
<path d="M41.9047 21V7.14H51.2647V9.76H45.0247V12.48H50.5647V15.04H45.0247V18.38H51.7247V21H41.9047ZM63.3136 21C63.1669 20.52 63.0003 20.0267 62.8136 19.52C62.6403 19.0133 62.4669 18.5067 62.2936 18H56.8936C56.7203 18.5067 56.5403 19.0133 56.3536 19.52C56.1803 20.0267 56.0203 20.52 55.8736 21H52.6336C53.1536 19.5067 53.6469 18.1267 54.1136 16.86C54.5803 15.5933 55.0336 14.4 55.4736 13.28C55.9269 12.16 56.3669 11.1 56.7936 10.1C57.2336 9.08667 57.6869 8.1 58.1536 7.14H61.1336C61.5869 8.1 62.0336 9.08667 62.4736 10.1C62.9136 11.1 63.3536 12.16 63.7936 13.28C64.2469 14.4 64.7069 15.5933 65.1736 16.86C65.6403 18.1267 66.1336 19.5067 66.6536 21H63.3136ZM59.5736 10.28C59.5069 10.48 59.4069 10.7533 59.2736 11.1C59.1403 11.4467 58.9869 11.8467 58.8136 12.3C58.6403 12.7533 58.4469 13.2533 58.2336 13.8C58.0336 14.3467 57.8269 14.92 57.6136 15.52H61.5536C61.3403 14.92 61.1336 14.3467 60.9336 13.8C60.7336 13.2533 60.5403 12.7533 60.3536 12.3C60.1803 11.8467 60.0269 11.4467 59.8936 11.1C59.7603 10.7533 59.6536 10.48 59.5736 10.28ZM72.5988 18.62C73.0388 18.62 73.3988 18.5867 73.6788 18.52C73.9721 18.44 74.2054 18.34 74.3788 18.22C74.5521 18.0867 74.6721 17.9333 74.7388 17.76C74.8054 17.5867 74.8388 17.3933 74.8388 17.18C74.8388 16.7267 74.6254 16.3533 74.1988 16.06C73.7721 15.7533 73.0388 15.4267 71.9988 15.08C71.5454 14.92 71.0921 14.74 70.6388 14.54C70.1854 14.3267 69.7788 14.0667 69.4188 13.76C69.0588 13.44 68.7654 13.06 68.5387 12.62C68.3121 12.1667 68.1988 11.62 68.1988 10.98C68.1988 10.34 68.3188 9.76667 68.5588 9.26C68.7988 8.74 69.1388 8.3 69.5788 7.94C70.0188 7.58 70.5521 7.30667 71.1788 7.12C71.8054 6.92 72.5121 6.82 73.2988 6.82C74.2321 6.82 75.0388 6.92 75.7188 7.12C76.3988 7.32 76.9588 7.54 77.3988 7.78L76.4988 10.24C76.1121 10.04 75.6788 9.86667 75.1988 9.72C74.7321 9.56 74.1654 9.48 73.4988 9.48C72.7521 9.48 72.2121 9.58667 71.8788 9.8C71.5588 10 71.3988 10.3133 71.3988 10.74C71.3988 10.9933 71.4588 11.2067 71.5788 11.38C71.6988 11.5533 71.8654 11.7133 72.0788 11.86C72.3054 11.9933 72.5588 12.12 72.8388 12.24C73.1321 12.3467 73.4521 12.46 73.7988 12.58C74.5188 12.8467 75.1454 13.1133 75.6788 13.38C76.2121 13.6333 76.6521 13.9333 76.9988 14.28C77.3588 14.6267 77.6254 15.0333 77.7988 15.5C77.9721 15.9667 78.0588 16.5333 78.0588 17.2C78.0588 18.4933 77.6054 19.5 76.6988 20.22C75.7921 20.9267 74.4254 21.28 72.5988 21.28C71.9854 21.28 71.4321 21.24 70.9388 21.16C70.4454 21.0933 70.0054 21.0067 69.6188 20.9C69.2454 20.7933 68.9188 20.68 68.6388 20.56C68.3721 20.44 68.1454 20.3267 67.9588 20.22L68.8388 17.74C69.2521 17.9667 69.7588 18.1733 70.3588 18.36C70.9721 18.5333 71.7188 18.62 72.5988 18.62ZM85.3441 12.84C85.9041 11.8933 86.4374 10.9467 86.9441 10C87.4507 9.05333 87.9174 8.1 88.3441 7.14H91.7841C91.0241 8.63333 90.2374 10.08 89.4241 11.48C88.6107 12.88 87.7507 14.2867 86.8441 15.7V21H83.7241V15.74C82.8174 14.3267 81.9507 12.9133 81.1241 11.5C80.3107 10.0867 79.5241 8.63333 78.7641 7.14H82.3841C82.8107 8.1 83.2707 9.05333 83.7641 10C84.2574 10.9467 84.7841 11.8933 85.3441 12.84Z" fill="white"/>
</svg>
