<svg width="92" height="43" viewBox="0 0 92 43" fill="none" xmlns="http://www.w3.org/2000/svg">
<path d="M1.032 39V30.684H6.108V31.68H2.196V34.152H5.676V35.124H2.196V38.004H6.408V39H1.032ZM20.8475 39C20.6715 38.704 20.4675 38.372 20.2355 38.004C20.0115 37.636 19.7675 37.256 19.5035 36.864C19.2395 36.464 18.9635 36.06 18.6755 35.652C18.3955 35.244 18.1155 34.852 17.8355 34.476C17.5555 34.092 17.2835 33.732 17.0195 33.396C16.7555 33.06 16.5115 32.764 16.2875 32.508V39H15.1475V30.684H16.0715C16.4475 31.084 16.8475 31.552 17.2715 32.088C17.7035 32.616 18.1275 33.164 18.5435 33.732C18.9675 34.292 19.3635 34.844 19.7315 35.388C20.1075 35.932 20.4235 36.416 20.6795 36.84V30.684H21.8195V39H20.8475ZM36.2139 34.908H37.3779V38.796C37.2819 38.828 37.1419 38.864 36.9579 38.904C36.7819 38.944 36.5739 38.984 36.3339 39.024C36.1019 39.064 35.8459 39.096 35.5659 39.12C35.2859 39.152 35.0019 39.168 34.7139 39.168C34.1299 39.168 33.5979 39.072 33.1179 38.88C32.6379 38.688 32.2259 38.408 31.8819 38.04C31.5379 37.672 31.2699 37.22 31.0779 36.684C30.8939 36.148 30.8019 35.532 30.8019 34.836C30.8019 34.14 30.9059 33.524 31.1139 32.988C31.3299 32.444 31.6179 31.988 31.9779 31.62C32.3379 31.252 32.7579 30.972 33.2379 30.78C33.7259 30.588 34.2459 30.492 34.7979 30.492C35.1739 30.492 35.5059 30.516 35.7939 30.564C36.0899 30.612 36.3419 30.668 36.5499 30.732C36.7579 30.796 36.9259 30.86 37.0539 30.924C37.1899 30.988 37.2819 31.036 37.3299 31.068L36.9579 32.04C36.7259 31.888 36.4179 31.764 36.0339 31.668C35.6499 31.564 35.2579 31.512 34.8579 31.512C34.4339 31.512 34.0459 31.588 33.6939 31.74C33.3499 31.892 33.0539 32.112 32.8059 32.4C32.5659 32.688 32.3779 33.04 32.2419 33.456C32.1059 33.864 32.0379 34.324 32.0379 34.836C32.0379 35.332 32.0939 35.784 32.2059 36.192C32.3259 36.6 32.5019 36.952 32.7339 37.248C32.9739 37.536 33.2659 37.76 33.6099 37.92C33.9619 38.08 34.3739 38.16 34.8459 38.16C35.1819 38.16 35.4659 38.144 35.6979 38.112C35.9379 38.072 36.1099 38.036 36.2139 38.004V34.908ZM51.4644 37.992V39H46.4604V30.684H47.6244V37.992H51.4644ZM59.9431 30.684H61.1071V39H59.9431V30.684ZM72.3578 38.172C73.5738 38.172 74.1818 37.756 74.1818 36.924C74.1818 36.668 74.1258 36.452 74.0138 36.276C73.9098 36.092 73.7658 35.936 73.5818 35.808C73.3978 35.672 73.1858 35.556 72.9458 35.46C72.7138 35.364 72.4658 35.268 72.2018 35.172C71.8978 35.068 71.6098 34.952 71.3378 34.824C71.0658 34.688 70.8298 34.532 70.6298 34.356C70.4298 34.172 70.2698 33.956 70.1498 33.708C70.0378 33.46 69.9818 33.16 69.9818 32.808C69.9818 32.08 70.2298 31.512 70.7258 31.104C71.2218 30.696 71.9058 30.492 72.7778 30.492C73.2818 30.492 73.7378 30.548 74.1458 30.66C74.5618 30.764 74.8658 30.88 75.0578 31.008L74.6858 31.956C74.5178 31.852 74.2658 31.752 73.9298 31.656C73.6018 31.552 73.2178 31.5 72.7778 31.5C72.5538 31.5 72.3458 31.524 72.1538 31.572C71.9618 31.62 71.7938 31.692 71.6498 31.788C71.5058 31.884 71.3898 32.008 71.3018 32.16C71.2218 32.304 71.1818 32.476 71.1818 32.676C71.1818 32.9 71.2258 33.088 71.3138 33.24C71.4018 33.392 71.5258 33.528 71.6858 33.648C71.8458 33.76 72.0298 33.864 72.2378 33.96C72.4538 34.056 72.6898 34.152 72.9458 34.248C73.3058 34.392 73.6338 34.536 73.9298 34.68C74.2338 34.824 74.4938 34.996 74.7098 35.196C74.9338 35.396 75.1058 35.636 75.2258 35.916C75.3458 36.188 75.4058 36.52 75.4058 36.912C75.4058 37.64 75.1378 38.2 74.6018 38.592C74.0738 38.984 73.3258 39.18 72.3578 39.18C72.0298 39.18 71.7258 39.156 71.4458 39.108C71.1738 39.068 70.9298 39.02 70.7138 38.964C70.4978 38.9 70.3098 38.836 70.1498 38.772C69.9978 38.7 69.8778 38.64 69.7898 38.592L70.1378 37.632C70.3218 37.736 70.6018 37.852 70.9778 37.98C71.3538 38.108 71.8138 38.172 72.3578 38.172ZM89.3045 30.684H90.4685V39H89.3045V35.16H85.2365V39H84.0725V30.684H85.2365V34.152H89.3045V30.684Z" fill="white"/>
<path d="M21.6 21V7.14H30.96V9.76H24.72V12.48H30.26V15.04H24.72V18.38H31.42V21H21.6ZM43.0089 21C42.8622 20.52 42.6956 20.0267 42.5089 19.52C42.3356 19.0133 42.1622 18.5067 41.9889 18H36.5889C36.4156 18.5067 36.2356 19.0133 36.0489 19.52C35.8756 20.0267 35.7156 20.52 35.5689 21H32.3289C32.8489 19.5067 33.3422 18.1267 33.8089 16.86C34.2756 15.5933 34.7289 14.4 35.1689 13.28C35.6222 12.16 36.0622 11.1 36.4889 10.1C36.9289 9.08667 37.3822 8.1 37.8489 7.14H40.8289C41.2822 8.1 41.7289 9.08667 42.1689 10.1C42.6089 11.1 43.0489 12.16 43.4889 13.28C43.9422 14.4 44.4022 15.5933 44.8689 16.86C45.3356 18.1267 45.8289 19.5067 46.3489 21H43.0089ZM39.2689 10.28C39.2022 10.48 39.1022 10.7533 38.9689 11.1C38.8356 11.4467 38.6822 11.8467 38.5089 12.3C38.3356 12.7533 38.1422 13.2533 37.9289 13.8C37.7289 14.3467 37.5222 14.92 37.3089 15.52H41.2489C41.0356 14.92 40.8289 14.3467 40.6289 13.8C40.4289 13.2533 40.2356 12.7533 40.0489 12.3C39.8756 11.8467 39.7222 11.4467 39.5889 11.1C39.4556 10.7533 39.3489 10.48 39.2689 10.28ZM52.2941 18.62C52.7341 18.62 53.0941 18.5867 53.3741 18.52C53.6674 18.44 53.9007 18.34 54.0741 18.22C54.2474 18.0867 54.3674 17.9333 54.4341 17.76C54.5007 17.5867 54.5341 17.3933 54.5341 17.18C54.5341 16.7267 54.3207 16.3533 53.8941 16.06C53.4674 15.7533 52.7341 15.4267 51.6941 15.08C51.2407 14.92 50.7874 14.74 50.3341 14.54C49.8807 14.3267 49.4741 14.0667 49.1141 13.76C48.7541 13.44 48.4607 13.06 48.2341 12.62C48.0074 12.1667 47.8941 11.62 47.8941 10.98C47.8941 10.34 48.0141 9.76667 48.2541 9.26C48.4941 8.74 48.8341 8.3 49.2741 7.94C49.7141 7.58 50.2474 7.30667 50.8741 7.12C51.5007 6.92 52.2074 6.82 52.9941 6.82C53.9274 6.82 54.7341 6.92 55.4141 7.12C56.0941 7.32 56.6541 7.54 57.0941 7.78L56.1941 10.24C55.8074 10.04 55.3741 9.86667 54.8941 9.72C54.4274 9.56 53.8607 9.48 53.1941 9.48C52.4474 9.48 51.9074 9.58667 51.5741 9.8C51.2541 10 51.0941 10.3133 51.0941 10.74C51.0941 10.9933 51.1541 11.2067 51.2741 11.38C51.3941 11.5533 51.5607 11.7133 51.7741 11.86C52.0007 11.9933 52.2541 12.12 52.5341 12.24C52.8274 12.3467 53.1474 12.46 53.4941 12.58C54.2141 12.8467 54.8407 13.1133 55.3741 13.38C55.9074 13.6333 56.3474 13.9333 56.6941 14.28C57.0541 14.6267 57.3207 15.0333 57.4941 15.5C57.6674 15.9667 57.7541 16.5333 57.7541 17.2C57.7541 18.4933 57.3007 19.5 56.3941 20.22C55.4874 20.9267 54.1207 21.28 52.2941 21.28C51.6807 21.28 51.1274 21.24 50.6341 21.16C50.1407 21.0933 49.7007 21.0067 49.3141 20.9C48.9407 20.7933 48.6141 20.68 48.3341 20.56C48.0674 20.44 47.8407 20.3267 47.6541 20.22L48.5341 17.74C48.9474 17.9667 49.4541 18.1733 50.0541 18.36C50.6674 18.5333 51.4141 18.62 52.2941 18.62ZM65.0394 12.84C65.5994 11.8933 66.1327 10.9467 66.6394 10C67.146 9.05333 67.6127 8.1 68.0394 7.14H71.4794C70.7194 8.63333 69.9327 10.08 69.1194 11.48C68.306 12.88 67.446 14.2867 66.5394 15.7V21H63.4194V15.74C62.5127 14.3267 61.646 12.9133 60.8194 11.5C60.006 10.0867 59.2194 8.63333 58.4594 7.14H62.0794C62.506 8.1 62.966 9.05333 63.4594 10C63.9527 10.9467 64.4794 11.8933 65.0394 12.84Z" fill="white"/>
</svg>
