<svg width="32" height="30" viewBox="0 0 32 30" fill="none" xmlns="http://www.w3.org/2000/svg">
<g clip-path="url(#clip0)">
<path d="M30.666 27.8669L22.117 19.3358C23.773 17.2946 24.77 14.7008 24.77 11.8759C24.77 5.32844 19.4314 0.000976562 12.8703 0.000976562C6.30923 0.000976562 0.970703 5.32838 0.970703 11.8758C0.970703 18.4233 6.30929 23.7507 12.8704 23.7507C15.7013 23.7507 18.3004 22.7558 20.3459 21.1032L28.8949 29.6344C29.1391 29.8782 29.4598 30.0007 29.7805 30.0007C30.1012 30.0007 30.4218 29.8782 30.6661 29.6344C31.1558 29.1457 31.1558 28.3557 30.666 27.8669ZM12.8704 21.2507C7.68964 21.2507 3.47592 17.0458 3.47592 11.8758C3.47592 6.70585 7.68964 2.50091 12.8704 2.50091C18.0512 2.50091 22.2649 6.70585 22.2649 11.8758C22.2649 17.0458 18.0511 21.2507 12.8704 21.2507Z" fill="white"/>
</g>
<defs>
<clipPath id="clip0">
<rect width="30.0626" height="30" fill="white" transform="translate(0.970703)"/>
</clipPath>
</defs>
</svg>
